{"title":"Falling.Uphill.2012.WEBRip XViD juggs","uid":8212764,"size":743392185,"categoryP":"video","categoryS":"movies","magnet":"?xt=urn:btih:439dfe80953c1c6f9dfadadec83eb99558e6fee5&amp;dn=Falling.Uphill.2012.WEBRip+XViD+juggs&amp;tr=udp%3A%2F%2Ftracker.openbittorrent.com%3A80&amp;tr=udp%3A%2F%2Fopen.demonii.com%3A1337&amp;tr=udp%3A%2F%2Ftracker.coppersurfer.tk%3A6969&amp;tr=udp%3A%2F%2Fexodus.desync.com%3A6969","seeders":1,"leechers":0,"uploader":"juggs99","files":3,"time":1362271388,"description":"Source : NGB\n\nFormat : AVI\nFormat/Info : Audio Video Interleave\nFile size : 701 MiB\nDuration : 1h 24mn\nOverall bit rate : 1 167 Kbps\nWriting library : VirtualDub build 32842/release\n\nVideo\nID : 0\nFormat : MPEG-4 Visual\nFormat profile : Advanced Simple@L5\nFormat settings, BVOP : 4\nFormat settings, QPel : No\nFormat settings, GMC : No warppoints\nFormat settings, Matrix : Default (H.263)\nMuxing mode : Packed bitstream\nCodec ID : XVID\nCodec ID/Hint : XviD\nDuration : 1h 24mn\nBit rate : 1 029 Kbps\nWidth : 640 pixels\nHeight : 352 pixels\nDisplay aspect ratio : 16:9\nFrame rate : 23.976 fps\nColor space : YUV\nChroma subsampling : 4:2:0\nBit depth : 8 bits\nScan type : Progressive\nCompression mode : Lossy\nBits/(Pixel*Frame) : 0.191\nStream size : 618 MiB (88%)\nWriting library : XviD 64\n\nAudio\nID : 1\nFormat : MPEG Audio\nFormat version : Version 1\nFormat profile : Layer 3\nCodec ID : 55\nCodec ID/Hint : MP3\nDuration : 1h 24mn\nBit rate mode : Constant\nBit rate : 128 Kbps\nChannel(s) : 2 channels\nSampling rate : 44.1 KHz\nCompression mode : Lossy\nStream size : 76.9 MiB (11%)\nAlignment : Split accross interleaves\nInterleave, duration : 42 ms (1.00 video frame)\nInterleave, preload duration : 500 ms\nWriting library : LAME3.99r\nEncoding settings : -m s -V 4 -q 3 -lowpass 17 -b 128\n\n\nPlot\nRobert asks Jenny, a girl he found on Craigslist, to be his new roommate. Now after a year of living together, he finds himself falling in love with her, but his ability to keep afloat in San Francisco is coming to an end. With a lame job and not enough income, he has no choice but to move back with his parents in Rochester, NY.\n\n &lt;a href=&quot;\nhttp://www.shotpix.com/images/73555935517594823209.png&quot; rel=&quot;nofollow&quot; target=&quot;_NEW&quot;&gt;\nhttp://www.shotpix.com/images/73555935517594823209.png&lt;/a&gt; &lt;a href=&quot;\nhttp://www.shotpix.com/images/51750390509896832077.png&quot; rel=&quot;nofollow&quot; target=&quot;_NEW&quot;&gt;\nhttp://www.shotpix.com/images/51750390509896832077.png&lt;/a&gt; &lt;a href=&quot;\nhttp://www.shotpix.com/images/59245851318824436956.png&quot; rel=&quot;nofollow&quot; target=&quot;_NEW&quot;&gt;\nhttp://www.shotpix.com/images/59245851318824436956.png&lt;/a&gt;","torrent":{"xt":"urn:btih:439dfe80953c1c6f9dfadadec83eb99558e6fee5","amp;dn":"Falling.Uphill.2012.WEBRip+XViD+juggs","amp;tr":["udp%3A%2F%2Ftracker.openbittorrent.com%3A80","udp%3A%2F%2Fopen.demonii.com%3A1337","udp%3A%2F%2Ftracker.coppersurfer.tk%3A6969","udp%3A%2F%2Fexodus.desync.com%3A6969"],"infoHash":"439dfe80953c1c6f9dfadadec83eb99558e6fee5","infoHashBuffer":{"type":"Buffer","data":[67,157,254,128,149,60,28,111,157,250,218,222,200,62,185,149,88,230,254,229]},"announce":[],"urlList":[]}}